<mxfile host="app.diagrams.net" agent="Mozilla/5.0 (Windows NT 10.0; Win64; x64) AppleWebKit/537.36 (KHTML, like Gecko) Chrome/134.0.0.0 Safari/537.36" version="26.1.2">
  <diagram name="Page-1" id="efa7a0a1-bf9b-a30e-e6df-94a7791c09e9">
    <mxGraphModel dx="941" dy="1864" grid="1" gridSize="10" guides="1" tooltips="1" connect="1" arrows="1" fold="1" page="1" pageScale="1" pageWidth="826" pageHeight="1169" background="none" math="0" shadow="0">
      <root>
        <mxCell id="0" />
        <mxCell id="1" parent="0" />
        <mxCell id="45" value="" style="endArrow=open;endSize=12;startArrow=diamondThin;startSize=14;startFill=1;edgeStyle=orthogonalEdgeStyle;rounded=0;entryX=0.003;entryY=0.173;entryDx=0;entryDy=0;exitX=0.5;exitY=1;exitDx=0;exitDy=0;entryPerimeter=0;" parent="1" source="_v9oNohXTvP5xsh4NIjf-116" target="_v9oNohXTvP5xsh4NIjf-114" edge="1">
          <mxGeometry x="519.3599999999999" y="180" as="geometry">
            <mxPoint x="2610" y="230" as="sourcePoint" />
            <mxPoint x="2237.4900000000002" y="388.43" as="targetPoint" />
          </mxGeometry>
        </mxCell>
        <mxCell id="46" value="0..n" style="resizable=0;align=left;verticalAlign=top;labelBackgroundColor=#ffffff;fontSize=10;strokeColor=#003366;shadow=1;fillColor=#D4E1F5;fontColor=#003366" parent="45" connectable="0" vertex="1">
          <mxGeometry x="-1" relative="1" as="geometry">
            <mxPoint x="8.919999999999618" as="offset" />
          </mxGeometry>
        </mxCell>
        <mxCell id="47" value="1" style="resizable=0;align=right;verticalAlign=top;labelBackgroundColor=#ffffff;fontSize=10;strokeColor=#003366;shadow=1;fillColor=#D4E1F5;fontColor=#003366" parent="45" connectable="0" vertex="1">
          <mxGeometry x="1" relative="1" as="geometry">
            <mxPoint x="-17" y="-26" as="offset" />
          </mxGeometry>
        </mxCell>
        <mxCell id="_v9oNohXTvP5xsh4NIjf-114" value="&lt;p style=&quot;margin: 0px; margin-top: 4px; text-align: center; text-decoration: underline;&quot;&gt;&lt;b&gt;Hotels&lt;/b&gt;&lt;/p&gt;&lt;hr&gt;&lt;p style=&quot;margin: 0px; margin-left: 8px;&quot;&gt;Id:&amp;nbsp;&amp;nbsp;INT (PK, AUTO_INCREMENT)&lt;br&gt;Name:&amp;nbsp;VARCHAR(255) (NOT NULL)&lt;/p&gt;&lt;p style=&quot;margin: 0px; margin-left: 8px;&quot;&gt;Images: TEXT&lt;/p&gt;&lt;p style=&quot;margin: 0px; margin-left: 8px;&quot;&gt;Description: TEXT&lt;/p&gt;&lt;p style=&quot;margin: 0px; margin-left: 8px;&quot;&gt;Address: VARCHAR(255)&lt;/p&gt;&lt;p style=&quot;margin: 0px; margin-left: 8px;&quot;&gt;Phone: VARCHAR(15)&lt;/p&gt;&lt;p style=&quot;margin: 0px; margin-left: 8px;&quot;&gt;Email: VARCHAR(100)&lt;/p&gt;&lt;p style=&quot;margin: 0px; margin-left: 8px;&quot;&gt;Rating: Float(0-5)&lt;/p&gt;&lt;p style=&quot;margin: 0px; margin-left: 8px;&quot;&gt;&lt;br&gt;&lt;/p&gt;" style="verticalAlign=top;align=left;overflow=fill;fontSize=12;fontFamily=Helvetica;html=1;strokeColor=#003366;shadow=1;fillColor=#D4E1F5;fontColor=#003366" vertex="1" parent="1">
          <mxGeometry x="2567" y="240" width="220" height="152.5" as="geometry" />
        </mxCell>
        <mxCell id="_v9oNohXTvP5xsh4NIjf-115" value="&lt;p style=&quot;margin: 0px; margin-top: 4px; text-align: center; text-decoration: underline;&quot;&gt;&lt;b&gt;Users&lt;/b&gt;&lt;/p&gt;&lt;hr&gt;&lt;p style=&quot;margin: 0px; margin-left: 8px;&quot;&gt;Id:&amp;nbsp;&amp;nbsp;INT (PK, AUTO_INCREMENT)&lt;br&gt;UserName:&amp;nbsp;VARCHAR(255) (UNIQUE)&lt;/p&gt;&lt;p style=&quot;margin: 0px; margin-left: 8px;&quot;&gt;Password:&amp;nbsp;VARCHAR(255)&lt;/p&gt;&lt;p style=&quot;margin: 0px; margin-left: 8px;&quot;&gt;Name:&amp;nbsp;VARCHAR(255)&lt;/p&gt;&lt;p style=&quot;margin: 0px; margin-left: 8px;&quot;&gt;Avatar: TEXT&lt;/p&gt;&lt;p style=&quot;margin: 0px; margin-left: 8px;&quot;&gt;Phone: VARCHAR(15)&lt;/p&gt;&lt;p style=&quot;margin: 0px; margin-left: 8px;&quot;&gt;Email: VARCHAR(100)&lt;/p&gt;&lt;p style=&quot;margin: 0px; margin-left: 8px;&quot;&gt;&lt;br&gt;&lt;/p&gt;&lt;p style=&quot;margin: 0px; margin-left: 8px;&quot;&gt;&lt;br&gt;&lt;/p&gt;" style="verticalAlign=top;align=left;overflow=fill;fontSize=12;fontFamily=Helvetica;html=1;strokeColor=#003366;shadow=1;fillColor=#D4E1F5;fontColor=#003366" vertex="1" parent="1">
          <mxGeometry x="2020" y="170" width="230" height="135" as="geometry" />
        </mxCell>
        <mxCell id="_v9oNohXTvP5xsh4NIjf-116" value="&lt;p style=&quot;margin: 0px; margin-top: 4px; text-align: center; text-decoration: underline;&quot;&gt;&lt;b&gt;Staffs&lt;/b&gt;&lt;/p&gt;&lt;hr&gt;&lt;p style=&quot;margin: 0px; margin-left: 8px;&quot;&gt;Id:&amp;nbsp;&amp;nbsp;INT (PK, AUTO_INCREMENT)&lt;br&gt;Username:&amp;nbsp;VARCHAR(255) (UNIQUE)&lt;/p&gt;&lt;p style=&quot;margin: 0px; margin-left: 8px;&quot;&gt;Password:&amp;nbsp;VARCHAR(255)&lt;/p&gt;&lt;p style=&quot;margin: 0px; margin-left: 8px;&quot;&gt;Name:&amp;nbsp;VARCHAR(255)&lt;/p&gt;&lt;p style=&quot;margin: 0px; margin-left: 8px;&quot;&gt;Avatar: TEXT&lt;/p&gt;&lt;p style=&quot;margin: 0px; margin-left: 8px;&quot;&gt;Phone: VARCHAR(15)&lt;/p&gt;&lt;p style=&quot;margin: 0px; margin-left: 8px;&quot;&gt;Email: VARCHAR(100)&lt;/p&gt;&lt;p style=&quot;margin: 0px; margin-left: 8px;&quot;&gt;Address: VARCHAR(255)&lt;/p&gt;&lt;p style=&quot;margin: 0px; margin-left: 8px;&quot;&gt;Role: ENUM(staff, admin)&lt;/p&gt;&lt;p style=&quot;margin: 0px 0px 0px 8px;&quot;&gt;Hotel_id :&amp;nbsp;INT (FK -&amp;gt; Hotels.Id)&lt;/p&gt;&lt;p style=&quot;margin: 0px; margin-left: 8px;&quot;&gt;&lt;br&gt;&lt;/p&gt;&lt;p style=&quot;margin: 0px; margin-left: 8px;&quot;&gt;&lt;br&gt;&lt;/p&gt;" style="verticalAlign=top;align=left;overflow=fill;fontSize=12;fontFamily=Helvetica;html=1;strokeColor=#003366;shadow=1;fillColor=#D4E1F5;fontColor=#003366" vertex="1" parent="1">
          <mxGeometry x="2300" y="-1.68" width="220" height="182.5" as="geometry" />
        </mxCell>
        <mxCell id="_v9oNohXTvP5xsh4NIjf-118" value="&lt;p style=&quot;margin: 0px; margin-top: 4px; text-align: center; text-decoration: underline;&quot;&gt;&lt;b&gt;RoomTypes&lt;/b&gt;&lt;/p&gt;&lt;hr&gt;&lt;p style=&quot;margin: 0px; margin-left: 8px;&quot;&gt;Id:&amp;nbsp;&amp;nbsp;INT (PK, AUTO_INCREMENT)&lt;br&gt;Name:&amp;nbsp;VARCHAR(255)&lt;/p&gt;&lt;p style=&quot;margin: 0px; margin-left: 8px;&quot;&gt;Description: TEXT&lt;/p&gt;&lt;p style=&quot;margin: 0px; margin-left: 8px;&quot;&gt;Price: DECIMAL(10,2)&amp;nbsp;&lt;/p&gt;&lt;p style=&quot;margin: 0px; margin-left: 8px;&quot;&gt;Capacity: INT&lt;/p&gt;&lt;p style=&quot;margin: 0px; margin-left: 8px;&quot;&gt;&lt;span style=&quot;background-color: transparent; color: light-dark(rgb(0, 51, 102), rgb(161, 205, 249));&quot;&gt;Area:&amp;nbsp;DECIMAL(3,1)&lt;/span&gt;&lt;/p&gt;&lt;p style=&quot;margin: 0px; margin-left: 8px;&quot;&gt;Hotel_id :&amp;nbsp;INT (FK -&amp;gt; Hotels.Id)&lt;/p&gt;" style="verticalAlign=top;align=left;overflow=fill;fontSize=12;fontFamily=Helvetica;html=1;strokeColor=#003366;shadow=1;fillColor=#D4E1F5;fontColor=#003366" vertex="1" parent="1">
          <mxGeometry x="2567" y="469.02" width="220" height="140" as="geometry" />
        </mxCell>
        <mxCell id="_v9oNohXTvP5xsh4NIjf-119" value="&lt;p style=&quot;margin: 0px; margin-top: 4px; text-align: center; text-decoration: underline;&quot;&gt;&lt;b&gt;Rooms&lt;/b&gt;&lt;/p&gt;&lt;hr&gt;&lt;p style=&quot;margin: 0px; margin-left: 8px;&quot;&gt;Id:&amp;nbsp;&amp;nbsp;INT (PK, AUTO_INCREMENT)&lt;br&gt;Room_number: VARCHAR(10) (UNIQUE&lt;span style=&quot;background-color: transparent; color: light-dark(rgb(0, 51, 102), rgb(161, 205, 249));&quot;&gt;)&lt;/span&gt;&lt;/p&gt;&lt;p style=&quot;margin: 0px; margin-left: 8px;&quot;&gt;&lt;span style=&quot;background-color: transparent;&quot;&gt;Status: ENUM(&#39;available&#39;, &#39;pending&#39;, &#39;booked&#39;, &#39;maintenance&#39;)&lt;/span&gt;&lt;/p&gt;&lt;p style=&quot;margin: 0px 0px 0px 8px;&quot;&gt;Room_type_id :&amp;nbsp;INT (FK -&amp;gt; RoomTypes.Id)&lt;/p&gt;&lt;p style=&quot;margin: 0px; margin-left: 8px;&quot;&gt;&lt;br&gt;&lt;/p&gt;&lt;p style=&quot;margin: 0px; margin-left: 8px;&quot;&gt;&lt;br&gt;&lt;/p&gt;" style="verticalAlign=top;align=left;overflow=fill;fontSize=12;fontFamily=Helvetica;html=1;strokeColor=#003366;shadow=1;fillColor=#D4E1F5;fontColor=#003366" vertex="1" parent="1">
          <mxGeometry x="2110" y="570" width="340" height="103.04" as="geometry" />
        </mxCell>
        <mxCell id="_v9oNohXTvP5xsh4NIjf-120" value="&lt;p style=&quot;margin: 4px 0px 0px; text-align: center;&quot;&gt;&lt;b&gt;&lt;u&gt;Amenities&lt;/u&gt;&lt;/b&gt;&lt;/p&gt;&lt;hr&gt;&lt;p style=&quot;margin: 0px; margin-left: 8px;&quot;&gt;Id:&amp;nbsp;&amp;nbsp;INT (PK, AUTO_INCREMENT)&lt;br&gt;&lt;/p&gt;&lt;p style=&quot;margin: 0px; margin-left: 8px;&quot;&gt;Name: VARCHAR(255) (UNIQUE)&lt;/p&gt;&lt;p style=&quot;margin: 0px; margin-left: 8px;&quot;&gt;Category: ENUM(&#39;bathroom&#39;, &#39;view&#39;, &#39;general&#39;)&lt;/p&gt;&lt;p style=&quot;margin: 0px; margin-left: 8px;&quot;&gt;&lt;br&gt;&lt;/p&gt;" style="verticalAlign=top;align=left;overflow=fill;fontSize=12;fontFamily=Helvetica;html=1;strokeColor=#003366;shadow=1;fillColor=#D4E1F5;fontColor=#003366" vertex="1" parent="1">
          <mxGeometry x="2867" y="160" width="260" height="80" as="geometry" />
        </mxCell>
        <mxCell id="_v9oNohXTvP5xsh4NIjf-121" value="&lt;p style=&quot;margin: 4px 0px 0px; text-align: center;&quot;&gt;&lt;b&gt;&lt;u&gt;RoomType_Amenities&lt;/u&gt;&lt;/b&gt;&lt;/p&gt;&lt;hr&gt;&lt;p style=&quot;margin: 0px; margin-left: 8px;&quot;&gt;Id:&amp;nbsp;&amp;nbsp;INT (PK, AUTO_INCREMENT)&lt;br&gt;&lt;/p&gt;&lt;p style=&quot;margin: 0px 0px 0px 8px;&quot;&gt;Room_type_id :&amp;nbsp;INT (FK -&amp;gt; RoomType.Id)&lt;/p&gt;&lt;p style=&quot;margin: 0px 0px 0px 8px;&quot;&gt;Amenity_id :&amp;nbsp;INT (FK -&amp;gt; Amenities.Id)&lt;/p&gt;&lt;p style=&quot;margin: 0px; margin-left: 8px;&quot;&gt;&lt;br&gt;&lt;/p&gt;&lt;p style=&quot;margin: 0px; margin-left: 8px;&quot;&gt;&lt;br&gt;&lt;/p&gt;" style="verticalAlign=top;align=left;overflow=fill;fontSize=12;fontFamily=Helvetica;html=1;strokeColor=#003366;shadow=1;fillColor=#D4E1F5;fontColor=#003366" vertex="1" parent="1">
          <mxGeometry x="2877" y="325.98" width="240" height="78.04" as="geometry" />
        </mxCell>
        <mxCell id="_v9oNohXTvP5xsh4NIjf-122" value="&lt;p style=&quot;margin: 4px 0px 0px; text-align: center;&quot;&gt;&lt;b&gt;&lt;u&gt;Beds&lt;/u&gt;&lt;/b&gt;&lt;/p&gt;&lt;hr&gt;&lt;p style=&quot;margin: 0px; margin-left: 8px;&quot;&gt;Id:&amp;nbsp;&amp;nbsp;INT (PK, AUTO_INCREMENT)&lt;br&gt;&lt;/p&gt;&lt;p style=&quot;margin: 0px; margin-left: 8px;&quot;&gt;Name: VARCHAR(255) (UNIQUE)&lt;/p&gt;&lt;p style=&quot;margin: 0px; margin-left: 8px;&quot;&gt;&lt;br&gt;&lt;/p&gt;" style="verticalAlign=top;align=left;overflow=fill;fontSize=12;fontFamily=Helvetica;html=1;strokeColor=#003366;shadow=1;fillColor=#D4E1F5;fontColor=#003366" vertex="1" parent="1">
          <mxGeometry x="2897" y="480" width="200" height="70" as="geometry" />
        </mxCell>
        <mxCell id="_v9oNohXTvP5xsh4NIjf-123" value="&lt;p style=&quot;margin: 4px 0px 0px; text-align: center;&quot;&gt;&lt;b&gt;&lt;u&gt;RoomType_Beds&lt;/u&gt;&lt;/b&gt;&lt;/p&gt;&lt;hr&gt;&lt;p style=&quot;margin: 0px; margin-left: 8px;&quot;&gt;Id:&amp;nbsp;&amp;nbsp;INT (PK, AUTO_INCREMENT)&lt;br&gt;&lt;/p&gt;&lt;p style=&quot;margin: 0px 0px 0px 8px;&quot;&gt;Room_type_id :&amp;nbsp;INT (FK -&amp;gt; RoomType.Id)&lt;/p&gt;&lt;p style=&quot;margin: 0px 0px 0px 8px;&quot;&gt;Bed_id :&amp;nbsp;INT (FK -&amp;gt; Beds.Id)&lt;/p&gt;&lt;p style=&quot;margin: 0px 0px 0px 8px;&quot;&gt;Quantity: INT&lt;/p&gt;&lt;p style=&quot;margin: 0px; margin-left: 8px;&quot;&gt;&lt;br&gt;&lt;/p&gt;&lt;p style=&quot;margin: 0px; margin-left: 8px;&quot;&gt;&lt;br&gt;&lt;/p&gt;" style="verticalAlign=top;align=left;overflow=fill;fontSize=12;fontFamily=Helvetica;html=1;strokeColor=#003366;shadow=1;fillColor=#D4E1F5;fontColor=#003366" vertex="1" parent="1">
          <mxGeometry x="2877" y="620" width="240" height="94.02" as="geometry" />
        </mxCell>
        <mxCell id="_v9oNohXTvP5xsh4NIjf-124" value="&lt;p style=&quot;margin: 0px; margin-top: 4px; text-align: center; text-decoration: underline;&quot;&gt;&lt;b&gt;Bookings&lt;/b&gt;&lt;/p&gt;&lt;hr&gt;&lt;p style=&quot;margin: 0px; margin-left: 8px;&quot;&gt;Id:&amp;nbsp;&amp;nbsp;INT (PK, AUTO_INCREMENT)&lt;/p&gt;&lt;p style=&quot;margin: 0px; margin-left: 8px;&quot;&gt;User_id :&amp;nbsp;INT (FK -&amp;gt; Users.Id)&lt;/p&gt;&lt;p style=&quot;margin: 0px; margin-left: 8px;&quot;&gt;Room_id :&amp;nbsp;INT (FK -&amp;gt; Rooms.Id)&lt;/p&gt;&lt;p style=&quot;margin: 0px 0px 0px 8px;&quot;&gt;Hotel_id :&amp;nbsp;INT (FK -&amp;gt; Hotels.Id)&lt;/p&gt;&lt;p style=&quot;margin: 0px; margin-left: 8px;&quot;&gt;Check_in: DATE&lt;/p&gt;&lt;p style=&quot;margin: 0px; margin-left: 8px;&quot;&gt;Check_out: DATE&lt;/p&gt;&lt;p style=&quot;margin: 0px; margin-left: 8px;&quot;&gt;Price: Decimal(10, 2)&lt;/p&gt;&lt;p style=&quot;margin: 0px; margin-left: 8px;&quot;&gt;Status:&amp;nbsp;ENUM(&#39;pending&#39;, &#39;confirmed&#39;, &#39;cancelled&#39;, &#39;completed&#39;)&lt;br&gt;Created_at: TIMESTAMP&lt;/p&gt;&lt;p style=&quot;margin: 0px; margin-left: 8px;&quot;&gt;Updated_at: TIMESTAMP&lt;/p&gt;" style="verticalAlign=top;align=left;overflow=fill;fontSize=12;fontFamily=Helvetica;html=1;strokeColor=#003366;shadow=1;fillColor=#D4E1F5;fontColor=#003366" vertex="1" parent="1">
          <mxGeometry x="2105" y="320" width="350" height="180" as="geometry" />
        </mxCell>
        <mxCell id="_v9oNohXTvP5xsh4NIjf-125" value="&lt;p style=&quot;margin: 0px; margin-top: 4px; text-align: center; text-decoration: underline;&quot;&gt;&lt;b&gt;Payments&lt;/b&gt;&lt;/p&gt;&lt;hr&gt;&lt;p style=&quot;margin: 0px; margin-left: 8px;&quot;&gt;Id:&amp;nbsp;&amp;nbsp;INT (PK, AUTO_INCREMENT)&lt;/p&gt;&lt;p style=&quot;margin: 0px; margin-left: 8px;&quot;&gt;Booking_id :&amp;nbsp;INT (FK -&amp;gt; Bookings.Id)&lt;/p&gt;&lt;p style=&quot;margin: 0px; margin-left: 8px;&quot;&gt;Amount_paid: DECIMAL(10 ,2)&lt;/p&gt;&lt;p style=&quot;margin: 0px; margin-left: 8px;&quot;&gt;Price: DECIMAL(10, 2)&lt;/p&gt;&lt;p style=&quot;margin: 0px; margin-left: 8px;&quot;&gt;Method: ENUM(&#39;cash&#39;, &#39;banking&#39;)&lt;/p&gt;&lt;p style=&quot;margin: 0px; margin-left: 8px;&quot;&gt;Status:&amp;nbsp;ENUM(&#39;pending&#39;, &#39;paid&#39;, &#39;refunded&#39;)&lt;br&gt;Created_at: TIMESTAMP&lt;/p&gt;&lt;p style=&quot;margin: 0px; margin-left: 8px;&quot;&gt;Updated_at: TIMESTAMP&lt;/p&gt;" style="verticalAlign=top;align=left;overflow=fill;fontSize=12;fontFamily=Helvetica;html=1;strokeColor=#003366;shadow=1;fillColor=#D4E1F5;fontColor=#003366" vertex="1" parent="1">
          <mxGeometry x="1672" y="180" width="246" height="160" as="geometry" />
        </mxCell>
        <mxCell id="_v9oNohXTvP5xsh4NIjf-126" value="&lt;p style=&quot;margin: 4px 0px 0px; text-align: center;&quot;&gt;&lt;b&gt;&lt;u&gt;Hotel_Amenities&lt;/u&gt;&lt;/b&gt;&lt;/p&gt;&lt;hr&gt;&lt;p style=&quot;margin: 0px; margin-left: 8px;&quot;&gt;Id:&amp;nbsp;&amp;nbsp;INT (PK, AUTO_INCREMENT)&lt;br&gt;&lt;/p&gt;&lt;p style=&quot;margin: 0px 0px 0px 8px;&quot;&gt;Room_type_id :&amp;nbsp;INT (FK -&amp;gt; RoomType.Id)&lt;/p&gt;&lt;p style=&quot;margin: 0px 0px 0px 8px;&quot;&gt;Hotel_id :&amp;nbsp;INT (FK -&amp;gt; Hotels.Id)&lt;/p&gt;" style="verticalAlign=top;align=left;overflow=fill;fontSize=12;fontFamily=Helvetica;html=1;strokeColor=#003366;shadow=1;fillColor=#D4E1F5;fontColor=#003366" vertex="1" parent="1">
          <mxGeometry x="2877" y="-0.8599999999999852" width="240" height="78.04" as="geometry" />
        </mxCell>
        <mxCell id="_v9oNohXTvP5xsh4NIjf-127" value="&lt;p style=&quot;margin: 0px; margin-top: 4px; text-align: center; text-decoration: underline;&quot;&gt;&lt;b&gt;Reviews&lt;/b&gt;&lt;/p&gt;&lt;hr&gt;&lt;p style=&quot;margin: 0px; margin-left: 8px;&quot;&gt;Id:&amp;nbsp;&amp;nbsp;INT (PK, AUTO_INCREMENT)&lt;/p&gt;&lt;p style=&quot;margin: 0px 0px 0px 8px;&quot;&gt;Booking_id :&amp;nbsp;INT (FK -&amp;gt; Bookings.Id)&lt;/p&gt;&lt;p style=&quot;margin: 0px 0px 0px 8px;&quot;&gt;Rating:&amp;nbsp;INT (1-5)&lt;/p&gt;&lt;p style=&quot;margin: 0px 0px 0px 8px;&quot;&gt;Comment: TEXT&lt;/p&gt;&lt;p style=&quot;margin: 0px; margin-left: 8px;&quot;&gt;Created_at: TIMESTAMP&lt;/p&gt;&lt;p style=&quot;margin: 0px; margin-left: 8px;&quot;&gt;Updated_at: TIMESTAMP&lt;/p&gt;" style="verticalAlign=top;align=left;overflow=fill;fontSize=12;fontFamily=Helvetica;html=1;strokeColor=#003366;shadow=1;fillColor=#D4E1F5;fontColor=#003366" vertex="1" parent="1">
          <mxGeometry x="1726" y="-1.6800000000000135" width="210" height="130" as="geometry" />
        </mxCell>
        <mxCell id="_v9oNohXTvP5xsh4NIjf-128" value="&lt;p style=&quot;margin: 0px; margin-top: 4px; text-align: center; text-decoration: underline;&quot;&gt;&lt;b&gt;Promotions&lt;/b&gt;&lt;/p&gt;&lt;hr&gt;&lt;p style=&quot;margin: 0px; margin-left: 8px;&quot;&gt;Id:&amp;nbsp;&amp;nbsp;INT (PK, AUTO_INCREMENT)&lt;/p&gt;&lt;p style=&quot;margin: 0px 0px 0px 8px;&quot;&gt;Code: VARCHAR(20)&lt;/p&gt;&lt;p style=&quot;margin: 0px 0px 0px 8px;&quot;&gt;Description: TEXT&lt;/p&gt;&lt;p style=&quot;margin: 0px 0px 0px 8px;&quot;&gt;Discount:&amp;nbsp;DECIMAL(5,2)&lt;/p&gt;&lt;p style=&quot;margin: 0px 0px 0px 8px;&quot;&gt;Start_date: DATE&lt;/p&gt;&lt;p style=&quot;margin: 0px 0px 0px 8px;&quot;&gt;End_date: DATE&lt;/p&gt;&lt;p style=&quot;margin: 0px 0px 0px 8px;&quot;&gt;Status: ENUM(&#39;active&#39;, &#39;end&#39;)&lt;/p&gt;&lt;p style=&quot;margin: 0px 0px 0px 8px;&quot;&gt;Hotel_id: INT (FK -&amp;gt; Hotels.id)&lt;/p&gt;&lt;p style=&quot;margin: 0px; margin-left: 8px;&quot;&gt;Created_at: TIMESTAMP&lt;/p&gt;&lt;p style=&quot;margin: 0px; margin-left: 8px;&quot;&gt;Updated_at: TIMESTAMP&lt;/p&gt;" style="verticalAlign=top;align=left;overflow=fill;fontSize=12;fontFamily=Helvetica;html=1;strokeColor=#003366;shadow=1;fillColor=#D4E1F5;fontColor=#003366" vertex="1" parent="1">
          <mxGeometry x="2554" y="-0.86" width="246" height="180.86" as="geometry" />
        </mxCell>
        <mxCell id="_v9oNohXTvP5xsh4NIjf-129" value="&lt;p style=&quot;margin: 0px; margin-top: 4px; text-align: center; text-decoration: underline;&quot;&gt;&lt;b&gt;Chatbot_Messages&lt;/b&gt;&lt;/p&gt;&lt;hr&gt;&lt;p style=&quot;margin: 0px; margin-left: 8px;&quot;&gt;Id:&amp;nbsp;&amp;nbsp;INT (PK, AUTO_INCREMENT)&lt;/p&gt;&lt;p style=&quot;margin: 0px 0px 0px 8px;&quot;&gt;User_id: INT (FK -&amp;gt; Users.id)&lt;/p&gt;&lt;p style=&quot;margin: 0px 0px 0px 8px;&quot;&gt;Message: TEXT&lt;/p&gt;&lt;p style=&quot;margin: 0px 0px 0px 8px;&quot;&gt;Response: TEXT&lt;/p&gt;&lt;p style=&quot;margin: 0px; margin-left: 8px;&quot;&gt;Created_at: TIMESTAMP&lt;/p&gt;&lt;p style=&quot;margin: 0px; margin-left: 8px;&quot;&gt;&lt;br&gt;&lt;/p&gt;" style="verticalAlign=top;align=left;overflow=fill;fontSize=12;fontFamily=Helvetica;html=1;strokeColor=#003366;shadow=1;fillColor=#D4E1F5;fontColor=#003366" vertex="1" parent="1">
          <mxGeometry x="2012" y="-1.679999999999886" width="246" height="110" as="geometry" />
        </mxCell>
        <mxCell id="_v9oNohXTvP5xsh4NIjf-130" value="&lt;p style=&quot;margin: 4px 0px 0px; text-align: center;&quot;&gt;&lt;b&gt;&lt;u&gt;Services&lt;/u&gt;&lt;/b&gt;&lt;/p&gt;&lt;hr&gt;&lt;p style=&quot;margin: 0px; margin-left: 8px;&quot;&gt;Id:&amp;nbsp;&amp;nbsp;INT (PK, AUTO_INCREMENT)&lt;br&gt;&lt;/p&gt;&lt;p style=&quot;margin: 0px; margin-left: 8px;&quot;&gt;Name: VARCHAR(255) (UNIQUE)&lt;/p&gt;&lt;p style=&quot;margin: 0px; margin-left: 8px;&quot;&gt;Category: ENUM(&#39;dining&#39;, &#39;entertainment&#39;, &#39;transportation&#39;)&lt;/p&gt;&lt;p style=&quot;margin: 0px; margin-left: 8px;&quot;&gt;Price: DECIMAL(10,2)&lt;/p&gt;&lt;p style=&quot;margin: 0px; margin-left: 8px;&quot;&gt;Hotel_id :&amp;nbsp;INT (FK -&amp;gt; Hotels.Id)&lt;/p&gt;" style="verticalAlign=top;align=left;overflow=fill;fontSize=12;fontFamily=Helvetica;html=1;strokeColor=#003366;shadow=1;fillColor=#D4E1F5;fontColor=#003366" vertex="1" parent="1">
          <mxGeometry x="1603" y="599.02" width="320" height="115" as="geometry" />
        </mxCell>
        <mxCell id="_v9oNohXTvP5xsh4NIjf-131" value="&lt;p style=&quot;margin: 0px; margin-top: 4px; text-align: center; text-decoration: underline;&quot;&gt;&lt;b&gt;Booking_Services&lt;/b&gt;&lt;/p&gt;&lt;hr&gt;&lt;p style=&quot;margin: 0px; margin-left: 8px;&quot;&gt;Id:&amp;nbsp;&amp;nbsp;INT (PK, AUTO_INCREMENT)&lt;/p&gt;&lt;p style=&quot;margin: 0px; margin-left: 8px;&quot;&gt;Booking_id :&amp;nbsp;INT (FK -&amp;gt; Bookings.Id)&lt;/p&gt;&lt;p style=&quot;margin: 0px; margin-left: 8px;&quot;&gt;Service_id :&amp;nbsp;INT (FK -&amp;gt; Services.Id)&lt;/p&gt;&lt;p style=&quot;margin: 0px; margin-left: 8px;&quot;&gt;Quantity: INT&lt;/p&gt;&lt;p style=&quot;margin: 0px; margin-left: 8px;&quot;&gt;Price: DECIMAL(10, 2)&lt;/p&gt;&lt;p style=&quot;margin: 0px; margin-left: 8px;&quot;&gt;Status:&amp;nbsp;ENUM(&#39;pending&#39;, &#39;confirmed&#39;, &#39;cancelled&#39;, &#39;completed&#39;)&lt;br&gt;Created_at: TIMESTAMP&lt;/p&gt;&lt;p style=&quot;margin: 0px; margin-left: 8px;&quot;&gt;Updated_at: TIMESTAMP&lt;/p&gt;" style="verticalAlign=top;align=left;overflow=fill;fontSize=12;fontFamily=Helvetica;html=1;strokeColor=#003366;shadow=1;fillColor=#D4E1F5;fontColor=#003366" vertex="1" parent="1">
          <mxGeometry x="1590" y="380" width="346" height="158.48" as="geometry" />
        </mxCell>
        <mxCell id="_v9oNohXTvP5xsh4NIjf-132" value="" style="endArrow=open;endSize=12;startArrow=diamondThin;startSize=14;startFill=1;edgeStyle=orthogonalEdgeStyle;rounded=0;entryX=1;entryY=0.25;entryDx=0;entryDy=0;exitX=0;exitY=0.5;exitDx=0;exitDy=0;" edge="1" parent="1" source="_v9oNohXTvP5xsh4NIjf-126" target="_v9oNohXTvP5xsh4NIjf-114">
          <mxGeometry x="519.3599999999999" y="180" as="geometry">
            <mxPoint x="2850" y="211.64" as="sourcePoint" />
            <mxPoint x="2850" y="307.64" as="targetPoint" />
          </mxGeometry>
        </mxCell>
        <mxCell id="_v9oNohXTvP5xsh4NIjf-133" value="0..n" style="resizable=0;align=left;verticalAlign=top;labelBackgroundColor=#ffffff;fontSize=10;strokeColor=#003366;shadow=1;fillColor=#D4E1F5;fontColor=#003366" connectable="0" vertex="1" parent="_v9oNohXTvP5xsh4NIjf-132">
          <mxGeometry x="-1" relative="1" as="geometry">
            <mxPoint x="-30" as="offset" />
          </mxGeometry>
        </mxCell>
        <mxCell id="_v9oNohXTvP5xsh4NIjf-134" value="1" style="resizable=0;align=right;verticalAlign=top;labelBackgroundColor=#ffffff;fontSize=10;strokeColor=#003366;shadow=1;fillColor=#D4E1F5;fontColor=#003366" connectable="0" vertex="1" parent="_v9oNohXTvP5xsh4NIjf-132">
          <mxGeometry x="1" relative="1" as="geometry">
            <mxPoint x="23" y="4" as="offset" />
          </mxGeometry>
        </mxCell>
        <mxCell id="_v9oNohXTvP5xsh4NIjf-136" value="" style="endArrow=open;endSize=12;startArrow=diamondThin;startSize=14;startFill=0;edgeStyle=orthogonalEdgeStyle;rounded=0;entryX=0.5;entryY=0;entryDx=0;entryDy=0;exitX=0.5;exitY=1;exitDx=0;exitDy=0;" edge="1" parent="1" source="_v9oNohXTvP5xsh4NIjf-126" target="_v9oNohXTvP5xsh4NIjf-120">
          <mxGeometry x="519.3599999999999" y="180" as="geometry">
            <mxPoint x="3031.5" y="302.5" as="sourcePoint" />
            <mxPoint x="2928.5" y="389.5" as="targetPoint" />
          </mxGeometry>
        </mxCell>
        <mxCell id="_v9oNohXTvP5xsh4NIjf-137" value="0..n" style="resizable=0;align=left;verticalAlign=top;labelBackgroundColor=#ffffff;fontSize=10;strokeColor=#003366;shadow=1;fillColor=#D4E1F5;fontColor=#003366" connectable="0" vertex="1" parent="_v9oNohXTvP5xsh4NIjf-136">
          <mxGeometry x="-1" relative="1" as="geometry">
            <mxPoint x="-30" as="offset" />
          </mxGeometry>
        </mxCell>
        <mxCell id="_v9oNohXTvP5xsh4NIjf-138" value="1" style="resizable=0;align=right;verticalAlign=top;labelBackgroundColor=#ffffff;fontSize=10;strokeColor=#003366;shadow=1;fillColor=#D4E1F5;fontColor=#003366" connectable="0" vertex="1" parent="_v9oNohXTvP5xsh4NIjf-136">
          <mxGeometry x="1" relative="1" as="geometry">
            <mxPoint x="-17" y="-30" as="offset" />
          </mxGeometry>
        </mxCell>
        <mxCell id="_v9oNohXTvP5xsh4NIjf-139" value="" style="endArrow=open;endSize=12;startArrow=diamondThin;startSize=14;startFill=1;edgeStyle=orthogonalEdgeStyle;rounded=0;entryX=0.5;entryY=1;entryDx=0;entryDy=0;exitX=0.5;exitY=0;exitDx=0;exitDy=0;" edge="1" parent="1" source="_v9oNohXTvP5xsh4NIjf-118" target="_v9oNohXTvP5xsh4NIjf-114">
          <mxGeometry x="519.3599999999999" y="180" as="geometry">
            <mxPoint x="2850" y="375" as="sourcePoint" />
            <mxPoint x="2850" y="471" as="targetPoint" />
          </mxGeometry>
        </mxCell>
        <mxCell id="_v9oNohXTvP5xsh4NIjf-140" value="0..n" style="resizable=0;align=left;verticalAlign=top;labelBackgroundColor=#ffffff;fontSize=10;strokeColor=#003366;shadow=1;fillColor=#D4E1F5;fontColor=#003366" connectable="0" vertex="1" parent="_v9oNohXTvP5xsh4NIjf-139">
          <mxGeometry x="-1" relative="1" as="geometry">
            <mxPoint x="9" y="-29" as="offset" />
          </mxGeometry>
        </mxCell>
        <mxCell id="_v9oNohXTvP5xsh4NIjf-141" value="1" style="resizable=0;align=right;verticalAlign=top;labelBackgroundColor=#ffffff;fontSize=10;strokeColor=#003366;shadow=1;fillColor=#D4E1F5;fontColor=#003366" connectable="0" vertex="1" parent="_v9oNohXTvP5xsh4NIjf-139">
          <mxGeometry x="1" relative="1" as="geometry">
            <mxPoint x="20" y="8" as="offset" />
          </mxGeometry>
        </mxCell>
        <mxCell id="_v9oNohXTvP5xsh4NIjf-142" value="" style="endArrow=open;endSize=12;startArrow=diamondThin;startSize=14;startFill=0;edgeStyle=orthogonalEdgeStyle;rounded=0;entryX=0.5;entryY=1;entryDx=0;entryDy=0;exitX=0.5;exitY=0;exitDx=0;exitDy=0;" edge="1" parent="1" source="_v9oNohXTvP5xsh4NIjf-121" target="_v9oNohXTvP5xsh4NIjf-120">
          <mxGeometry x="519.3599999999999" y="180" as="geometry">
            <mxPoint x="3040" y="270" as="sourcePoint" />
            <mxPoint x="3040" y="353" as="targetPoint" />
          </mxGeometry>
        </mxCell>
        <mxCell id="_v9oNohXTvP5xsh4NIjf-143" value="0..n" style="resizable=0;align=left;verticalAlign=top;labelBackgroundColor=#ffffff;fontSize=10;strokeColor=#003366;shadow=1;fillColor=#D4E1F5;fontColor=#003366" connectable="0" vertex="1" parent="_v9oNohXTvP5xsh4NIjf-142">
          <mxGeometry x="-1" relative="1" as="geometry">
            <mxPoint x="-30" y="-24" as="offset" />
          </mxGeometry>
        </mxCell>
        <mxCell id="_v9oNohXTvP5xsh4NIjf-144" value="1" style="resizable=0;align=right;verticalAlign=top;labelBackgroundColor=#ffffff;fontSize=10;strokeColor=#003366;shadow=1;fillColor=#D4E1F5;fontColor=#003366" connectable="0" vertex="1" parent="_v9oNohXTvP5xsh4NIjf-142">
          <mxGeometry x="1" relative="1" as="geometry">
            <mxPoint x="-7" y="10" as="offset" />
          </mxGeometry>
        </mxCell>
        <mxCell id="_v9oNohXTvP5xsh4NIjf-145" value="" style="endArrow=open;endSize=12;startArrow=diamondThin;startSize=14;startFill=1;edgeStyle=orthogonalEdgeStyle;rounded=0;exitX=0;exitY=0.5;exitDx=0;exitDy=0;entryX=1;entryY=0.5;entryDx=0;entryDy=0;" edge="1" parent="1" source="_v9oNohXTvP5xsh4NIjf-121" target="_v9oNohXTvP5xsh4NIjf-118">
          <mxGeometry x="519.3599999999999" y="180" as="geometry">
            <mxPoint x="2920" y="380" as="sourcePoint" />
            <mxPoint x="2820" y="530" as="targetPoint" />
          </mxGeometry>
        </mxCell>
        <mxCell id="_v9oNohXTvP5xsh4NIjf-146" value="0..n" style="resizable=0;align=left;verticalAlign=top;labelBackgroundColor=#ffffff;fontSize=10;strokeColor=#003366;shadow=1;fillColor=#D4E1F5;fontColor=#003366" connectable="0" vertex="1" parent="_v9oNohXTvP5xsh4NIjf-145">
          <mxGeometry x="-1" relative="1" as="geometry">
            <mxPoint x="-30" as="offset" />
          </mxGeometry>
        </mxCell>
        <mxCell id="_v9oNohXTvP5xsh4NIjf-147" value="1" style="resizable=0;align=right;verticalAlign=top;labelBackgroundColor=#ffffff;fontSize=10;strokeColor=#003366;shadow=1;fillColor=#D4E1F5;fontColor=#003366" connectable="0" vertex="1" parent="_v9oNohXTvP5xsh4NIjf-145">
          <mxGeometry x="1" relative="1" as="geometry">
            <mxPoint x="23" y="4" as="offset" />
          </mxGeometry>
        </mxCell>
        <mxCell id="_v9oNohXTvP5xsh4NIjf-151" value="" style="endArrow=open;endSize=12;startArrow=diamondThin;startSize=14;startFill=0;edgeStyle=orthogonalEdgeStyle;rounded=0;entryX=0.5;entryY=1;entryDx=0;entryDy=0;exitX=0.5;exitY=0;exitDx=0;exitDy=0;" edge="1" parent="1" source="_v9oNohXTvP5xsh4NIjf-123" target="_v9oNohXTvP5xsh4NIjf-122">
          <mxGeometry x="519.3599999999999" y="180" as="geometry">
            <mxPoint x="2997" y="404" as="sourcePoint" />
            <mxPoint x="2997" y="480" as="targetPoint" />
          </mxGeometry>
        </mxCell>
        <mxCell id="_v9oNohXTvP5xsh4NIjf-152" value="0..n" style="resizable=0;align=left;verticalAlign=top;labelBackgroundColor=#ffffff;fontSize=10;strokeColor=#003366;shadow=1;fillColor=#D4E1F5;fontColor=#003366" connectable="0" vertex="1" parent="_v9oNohXTvP5xsh4NIjf-151">
          <mxGeometry x="-1" relative="1" as="geometry">
            <mxPoint x="-27" y="-30" as="offset" />
          </mxGeometry>
        </mxCell>
        <mxCell id="_v9oNohXTvP5xsh4NIjf-153" value="1" style="resizable=0;align=right;verticalAlign=top;labelBackgroundColor=#ffffff;fontSize=10;strokeColor=#003366;shadow=1;fillColor=#D4E1F5;fontColor=#003366" connectable="0" vertex="1" parent="_v9oNohXTvP5xsh4NIjf-151">
          <mxGeometry x="1" relative="1" as="geometry">
            <mxPoint x="-7" y="10" as="offset" />
          </mxGeometry>
        </mxCell>
        <mxCell id="_v9oNohXTvP5xsh4NIjf-154" value="" style="endArrow=open;endSize=12;startArrow=diamondThin;startSize=14;startFill=1;edgeStyle=orthogonalEdgeStyle;rounded=0;entryX=0.5;entryY=1;entryDx=0;entryDy=0;exitX=0;exitY=0.5;exitDx=0;exitDy=0;" edge="1" parent="1" source="_v9oNohXTvP5xsh4NIjf-123" target="_v9oNohXTvP5xsh4NIjf-118">
          <mxGeometry x="519.3599999999999" y="180" as="geometry">
            <mxPoint x="2903" y="538.98" as="sourcePoint" />
            <mxPoint x="2813" y="677.98" as="targetPoint" />
          </mxGeometry>
        </mxCell>
        <mxCell id="_v9oNohXTvP5xsh4NIjf-155" value="0..n" style="resizable=0;align=left;verticalAlign=top;labelBackgroundColor=#ffffff;fontSize=10;strokeColor=#003366;shadow=1;fillColor=#D4E1F5;fontColor=#003366" connectable="0" vertex="1" parent="_v9oNohXTvP5xsh4NIjf-154">
          <mxGeometry x="-1" relative="1" as="geometry">
            <mxPoint x="-30" as="offset" />
          </mxGeometry>
        </mxCell>
        <mxCell id="_v9oNohXTvP5xsh4NIjf-156" value="1" style="resizable=0;align=right;verticalAlign=top;labelBackgroundColor=#ffffff;fontSize=10;strokeColor=#003366;shadow=1;fillColor=#D4E1F5;fontColor=#003366" connectable="0" vertex="1" parent="_v9oNohXTvP5xsh4NIjf-154">
          <mxGeometry x="1" relative="1" as="geometry">
            <mxPoint x="23" y="4" as="offset" />
          </mxGeometry>
        </mxCell>
        <mxCell id="_v9oNohXTvP5xsh4NIjf-157" value="" style="endArrow=open;endSize=12;startArrow=diamondThin;startSize=14;startFill=1;edgeStyle=orthogonalEdgeStyle;rounded=0;entryX=0;entryY=0.5;entryDx=0;entryDy=0;exitX=1;exitY=0.5;exitDx=0;exitDy=0;" edge="1" parent="1" source="_v9oNohXTvP5xsh4NIjf-119" target="_v9oNohXTvP5xsh4NIjf-118">
          <mxGeometry x="519.3599999999999" y="180" as="geometry">
            <mxPoint x="2540" y="531" as="sourcePoint" />
            <mxPoint x="2540" y="455" as="targetPoint" />
          </mxGeometry>
        </mxCell>
        <mxCell id="_v9oNohXTvP5xsh4NIjf-158" value="0..n" style="resizable=0;align=left;verticalAlign=top;labelBackgroundColor=#ffffff;fontSize=10;strokeColor=#003366;shadow=1;fillColor=#D4E1F5;fontColor=#003366" connectable="0" vertex="1" parent="_v9oNohXTvP5xsh4NIjf-157">
          <mxGeometry x="-1" relative="1" as="geometry">
            <mxPoint x="9" y="-29" as="offset" />
          </mxGeometry>
        </mxCell>
        <mxCell id="_v9oNohXTvP5xsh4NIjf-159" value="1" style="resizable=0;align=right;verticalAlign=top;labelBackgroundColor=#ffffff;fontSize=10;strokeColor=#003366;shadow=1;fillColor=#D4E1F5;fontColor=#003366" connectable="0" vertex="1" parent="_v9oNohXTvP5xsh4NIjf-157">
          <mxGeometry x="1" relative="1" as="geometry">
            <mxPoint x="-7" y="-29" as="offset" />
          </mxGeometry>
        </mxCell>
        <mxCell id="_v9oNohXTvP5xsh4NIjf-160" value="" style="endArrow=open;endSize=12;startArrow=diamondThin;startSize=14;startFill=0;edgeStyle=orthogonalEdgeStyle;rounded=0;exitX=0.5;exitY=1;exitDx=0;exitDy=0;entryX=0.5;entryY=0;entryDx=0;entryDy=0;" edge="1" parent="1" source="_v9oNohXTvP5xsh4NIjf-124" target="_v9oNohXTvP5xsh4NIjf-119">
          <mxGeometry x="519.3599999999999" y="180" as="geometry">
            <mxPoint x="2310" y="410" as="sourcePoint" />
            <mxPoint x="2340" y="460" as="targetPoint" />
          </mxGeometry>
        </mxCell>
        <mxCell id="_v9oNohXTvP5xsh4NIjf-161" value="0..n" style="resizable=0;align=left;verticalAlign=top;labelBackgroundColor=#ffffff;fontSize=10;strokeColor=#003366;shadow=1;fillColor=#D4E1F5;fontColor=#003366" connectable="0" vertex="1" parent="_v9oNohXTvP5xsh4NIjf-160">
          <mxGeometry x="-1" relative="1" as="geometry">
            <mxPoint x="-30" y="1" as="offset" />
          </mxGeometry>
        </mxCell>
        <mxCell id="_v9oNohXTvP5xsh4NIjf-162" value="1" style="resizable=0;align=right;verticalAlign=top;labelBackgroundColor=#ffffff;fontSize=10;strokeColor=#003366;shadow=1;fillColor=#D4E1F5;fontColor=#003366" connectable="0" vertex="1" parent="_v9oNohXTvP5xsh4NIjf-160">
          <mxGeometry x="1" relative="1" as="geometry">
            <mxPoint x="-10" y="-30" as="offset" />
          </mxGeometry>
        </mxCell>
        <mxCell id="_v9oNohXTvP5xsh4NIjf-163" value="" style="endArrow=open;endSize=12;startArrow=diamondThin;startSize=14;startFill=0;edgeStyle=orthogonalEdgeStyle;rounded=0;entryX=1;entryY=0.5;entryDx=0;entryDy=0;exitX=0.5;exitY=0;exitDx=0;exitDy=0;" edge="1" parent="1" source="_v9oNohXTvP5xsh4NIjf-124" target="_v9oNohXTvP5xsh4NIjf-115">
          <mxGeometry x="519.3599999999999" y="180" as="geometry">
            <mxPoint x="2330" y="210" as="sourcePoint" />
            <mxPoint x="2307.47" y="145.25" as="targetPoint" />
          </mxGeometry>
        </mxCell>
        <mxCell id="_v9oNohXTvP5xsh4NIjf-164" value="0..n" style="resizable=0;align=left;verticalAlign=top;labelBackgroundColor=#ffffff;fontSize=10;strokeColor=#003366;shadow=1;fillColor=#D4E1F5;fontColor=#003366" connectable="0" vertex="1" parent="_v9oNohXTvP5xsh4NIjf-163">
          <mxGeometry x="-1" relative="1" as="geometry">
            <mxPoint x="10" y="-24" as="offset" />
          </mxGeometry>
        </mxCell>
        <mxCell id="_v9oNohXTvP5xsh4NIjf-165" value="1" style="resizable=0;align=right;verticalAlign=top;labelBackgroundColor=#ffffff;fontSize=10;strokeColor=#003366;shadow=1;fillColor=#D4E1F5;fontColor=#003366" connectable="0" vertex="1" parent="_v9oNohXTvP5xsh4NIjf-163">
          <mxGeometry x="1" relative="1" as="geometry">
            <mxPoint x="20" y="-27" as="offset" />
          </mxGeometry>
        </mxCell>
        <mxCell id="_v9oNohXTvP5xsh4NIjf-169" value="" style="endArrow=open;endSize=12;startArrow=diamondThin;startSize=14;startFill=1;edgeStyle=orthogonalEdgeStyle;rounded=0;exitX=0.5;exitY=1;exitDx=0;exitDy=0;entryX=0.5;entryY=0;entryDx=0;entryDy=0;" edge="1" parent="1" source="_v9oNohXTvP5xsh4NIjf-128" target="_v9oNohXTvP5xsh4NIjf-114">
          <mxGeometry x="519.3599999999999" y="180" as="geometry">
            <mxPoint x="2687" y="479" as="sourcePoint" />
            <mxPoint x="2650" y="220" as="targetPoint" />
          </mxGeometry>
        </mxCell>
        <mxCell id="_v9oNohXTvP5xsh4NIjf-170" value="0..n" style="resizable=0;align=left;verticalAlign=top;labelBackgroundColor=#ffffff;fontSize=10;strokeColor=#003366;shadow=1;fillColor=#D4E1F5;fontColor=#003366" connectable="0" vertex="1" parent="_v9oNohXTvP5xsh4NIjf-169">
          <mxGeometry x="-1" relative="1" as="geometry">
            <mxPoint x="9" as="offset" />
          </mxGeometry>
        </mxCell>
        <mxCell id="_v9oNohXTvP5xsh4NIjf-171" value="1" style="resizable=0;align=right;verticalAlign=top;labelBackgroundColor=#ffffff;fontSize=10;strokeColor=#003366;shadow=1;fillColor=#D4E1F5;fontColor=#003366" connectable="0" vertex="1" parent="_v9oNohXTvP5xsh4NIjf-169">
          <mxGeometry x="1" relative="1" as="geometry">
            <mxPoint x="20" y="-20" as="offset" />
          </mxGeometry>
        </mxCell>
        <mxCell id="_v9oNohXTvP5xsh4NIjf-175" value="" style="endArrow=open;endSize=12;startArrow=diamondThin;startSize=14;startFill=0;edgeStyle=orthogonalEdgeStyle;rounded=0;exitX=1;exitY=0.5;exitDx=0;exitDy=0;entryX=0;entryY=0.75;entryDx=0;entryDy=0;" edge="1" parent="1" source="_v9oNohXTvP5xsh4NIjf-124" target="_v9oNohXTvP5xsh4NIjf-114">
          <mxGeometry x="519.3599999999999" y="180" as="geometry">
            <mxPoint x="2290" y="490" as="sourcePoint" />
            <mxPoint x="2290" y="580" as="targetPoint" />
          </mxGeometry>
        </mxCell>
        <mxCell id="_v9oNohXTvP5xsh4NIjf-176" value="0..n" style="resizable=0;align=left;verticalAlign=top;labelBackgroundColor=#ffffff;fontSize=10;strokeColor=#003366;shadow=1;fillColor=#D4E1F5;fontColor=#003366" connectable="0" vertex="1" parent="_v9oNohXTvP5xsh4NIjf-175">
          <mxGeometry x="-1" relative="1" as="geometry">
            <mxPoint x="15" y="-29" as="offset" />
          </mxGeometry>
        </mxCell>
        <mxCell id="_v9oNohXTvP5xsh4NIjf-177" value="1" style="resizable=0;align=right;verticalAlign=top;labelBackgroundColor=#ffffff;fontSize=10;strokeColor=#003366;shadow=1;fillColor=#D4E1F5;fontColor=#003366" connectable="0" vertex="1" parent="_v9oNohXTvP5xsh4NIjf-175">
          <mxGeometry x="1" relative="1" as="geometry">
            <mxPoint x="-10" y="-30" as="offset" />
          </mxGeometry>
        </mxCell>
        <mxCell id="_v9oNohXTvP5xsh4NIjf-179" value="" style="endArrow=open;endSize=12;startArrow=diamondThin;startSize=14;startFill=1;edgeStyle=orthogonalEdgeStyle;rounded=0;entryX=0;entryY=0.25;entryDx=0;entryDy=0;exitX=0.5;exitY=1;exitDx=0;exitDy=0;" edge="1" parent="1" source="_v9oNohXTvP5xsh4NIjf-127" target="_v9oNohXTvP5xsh4NIjf-124">
          <mxGeometry x="519.3599999999999" y="180" as="geometry">
            <mxPoint x="1982.75" y="250" as="sourcePoint" />
            <mxPoint x="2182.75" y="333" as="targetPoint" />
            <Array as="points">
              <mxPoint x="1830" y="128" />
              <mxPoint x="1830" y="160" />
              <mxPoint x="2000" y="160" />
              <mxPoint x="2000" y="365" />
            </Array>
          </mxGeometry>
        </mxCell>
        <mxCell id="_v9oNohXTvP5xsh4NIjf-181" value="1" style="resizable=0;align=right;verticalAlign=top;labelBackgroundColor=#ffffff;fontSize=10;strokeColor=#003366;shadow=1;fillColor=#D4E1F5;fontColor=#003366" connectable="0" vertex="1" parent="_v9oNohXTvP5xsh4NIjf-179">
          <mxGeometry x="1" relative="1" as="geometry">
            <mxPoint x="-17" y="-26" as="offset" />
          </mxGeometry>
        </mxCell>
        <mxCell id="_v9oNohXTvP5xsh4NIjf-182" value="1" style="resizable=0;align=right;verticalAlign=top;labelBackgroundColor=#ffffff;fontSize=10;strokeColor=#003366;shadow=1;fillColor=#D4E1F5;fontColor=#003366" connectable="0" vertex="1" parent="_v9oNohXTvP5xsh4NIjf-179">
          <mxGeometry x="1" relative="1" as="geometry">
            <mxPoint x="-285" y="-235" as="offset" />
          </mxGeometry>
        </mxCell>
        <mxCell id="_v9oNohXTvP5xsh4NIjf-183" value="" style="endArrow=open;endSize=12;startArrow=diamondThin;startSize=14;startFill=1;edgeStyle=orthogonalEdgeStyle;rounded=0;exitX=1;exitY=0.5;exitDx=0;exitDy=0;entryX=0;entryY=0.5;entryDx=0;entryDy=0;" edge="1" parent="1" source="_v9oNohXTvP5xsh4NIjf-125" target="_v9oNohXTvP5xsh4NIjf-124">
          <mxGeometry x="519.3599999999999" y="180" as="geometry">
            <mxPoint x="1880" y="404.02" as="sourcePoint" />
            <mxPoint x="2060" y="430" as="targetPoint" />
            <Array as="points">
              <mxPoint x="1960" y="260" />
              <mxPoint x="1960" y="410" />
            </Array>
          </mxGeometry>
        </mxCell>
        <mxCell id="_v9oNohXTvP5xsh4NIjf-184" value="1" style="resizable=0;align=right;verticalAlign=top;labelBackgroundColor=#ffffff;fontSize=10;strokeColor=#003366;shadow=1;fillColor=#D4E1F5;fontColor=#003366" connectable="0" vertex="1" parent="_v9oNohXTvP5xsh4NIjf-183">
          <mxGeometry x="1" relative="1" as="geometry">
            <mxPoint x="-17" y="-26" as="offset" />
          </mxGeometry>
        </mxCell>
        <mxCell id="_v9oNohXTvP5xsh4NIjf-185" value="1" style="resizable=0;align=right;verticalAlign=top;labelBackgroundColor=#ffffff;fontSize=10;strokeColor=#003366;shadow=1;fillColor=#D4E1F5;fontColor=#003366" connectable="0" vertex="1" parent="_v9oNohXTvP5xsh4NIjf-183">
          <mxGeometry x="1" relative="1" as="geometry">
            <mxPoint x="-165" y="-180" as="offset" />
          </mxGeometry>
        </mxCell>
        <mxCell id="_v9oNohXTvP5xsh4NIjf-187" value="" style="endArrow=open;endSize=12;startArrow=diamondThin;startSize=14;startFill=0;edgeStyle=orthogonalEdgeStyle;rounded=0;entryX=0.004;entryY=0.778;entryDx=0;entryDy=0;exitX=1;exitY=0.5;exitDx=0;exitDy=0;entryPerimeter=0;" edge="1" parent="1" source="_v9oNohXTvP5xsh4NIjf-131" target="_v9oNohXTvP5xsh4NIjf-124">
          <mxGeometry x="519.3599999999999" y="180" as="geometry">
            <mxPoint x="1982.71" y="467" as="sourcePoint" />
            <mxPoint x="2182.71" y="550" as="targetPoint" />
          </mxGeometry>
        </mxCell>
        <mxCell id="_v9oNohXTvP5xsh4NIjf-188" value="0..n" style="resizable=0;align=left;verticalAlign=top;labelBackgroundColor=#ffffff;fontSize=10;strokeColor=#003366;shadow=1;fillColor=#D4E1F5;fontColor=#003366" connectable="0" vertex="1" parent="_v9oNohXTvP5xsh4NIjf-187">
          <mxGeometry x="-1" relative="1" as="geometry">
            <mxPoint x="12" y="-31" as="offset" />
          </mxGeometry>
        </mxCell>
        <mxCell id="_v9oNohXTvP5xsh4NIjf-189" value="1" style="resizable=0;align=right;verticalAlign=top;labelBackgroundColor=#ffffff;fontSize=10;strokeColor=#003366;shadow=1;fillColor=#D4E1F5;fontColor=#003366" connectable="0" vertex="1" parent="_v9oNohXTvP5xsh4NIjf-187">
          <mxGeometry x="1" relative="1" as="geometry">
            <mxPoint x="-17" y="-26" as="offset" />
          </mxGeometry>
        </mxCell>
        <mxCell id="_v9oNohXTvP5xsh4NIjf-190" value="" style="endArrow=open;endSize=12;startArrow=diamondThin;startSize=14;startFill=0;edgeStyle=orthogonalEdgeStyle;rounded=0;entryX=0.5;entryY=0;entryDx=0;entryDy=0;exitX=0.5;exitY=1;exitDx=0;exitDy=0;" edge="1" parent="1" source="_v9oNohXTvP5xsh4NIjf-131" target="_v9oNohXTvP5xsh4NIjf-130">
          <mxGeometry x="519.3599999999999" y="180" as="geometry">
            <mxPoint x="1978" y="481" as="sourcePoint" />
            <mxPoint x="2115" y="445" as="targetPoint" />
          </mxGeometry>
        </mxCell>
        <mxCell id="_v9oNohXTvP5xsh4NIjf-191" value="0..n" style="resizable=0;align=left;verticalAlign=top;labelBackgroundColor=#ffffff;fontSize=10;strokeColor=#003366;shadow=1;fillColor=#D4E1F5;fontColor=#003366" connectable="0" vertex="1" parent="_v9oNohXTvP5xsh4NIjf-190">
          <mxGeometry x="-1" relative="1" as="geometry">
            <mxPoint x="-25" y="2" as="offset" />
          </mxGeometry>
        </mxCell>
        <mxCell id="_v9oNohXTvP5xsh4NIjf-192" value="1" style="resizable=0;align=right;verticalAlign=top;labelBackgroundColor=#ffffff;fontSize=10;strokeColor=#003366;shadow=1;fillColor=#D4E1F5;fontColor=#003366" connectable="0" vertex="1" parent="_v9oNohXTvP5xsh4NIjf-190">
          <mxGeometry x="1" relative="1" as="geometry">
            <mxPoint x="-15" y="-26" as="offset" />
          </mxGeometry>
        </mxCell>
        <mxCell id="_v9oNohXTvP5xsh4NIjf-193" value="" style="endArrow=open;endSize=12;startArrow=diamondThin;startSize=14;startFill=0;edgeStyle=orthogonalEdgeStyle;rounded=0;entryX=0.5;entryY=0;entryDx=0;entryDy=0;" edge="1" parent="1" target="_v9oNohXTvP5xsh4NIjf-115">
          <mxGeometry x="519.3599999999999" y="180" as="geometry">
            <mxPoint x="2135" y="110" as="sourcePoint" />
            <mxPoint x="2258" y="-102" as="targetPoint" />
          </mxGeometry>
        </mxCell>
        <mxCell id="_v9oNohXTvP5xsh4NIjf-194" value="0..n" style="resizable=0;align=left;verticalAlign=top;labelBackgroundColor=#ffffff;fontSize=10;strokeColor=#003366;shadow=1;fillColor=#D4E1F5;fontColor=#003366" connectable="0" vertex="1" parent="_v9oNohXTvP5xsh4NIjf-193">
          <mxGeometry x="-1" relative="1" as="geometry">
            <mxPoint x="10" as="offset" />
          </mxGeometry>
        </mxCell>
        <mxCell id="_v9oNohXTvP5xsh4NIjf-195" value="1" style="resizable=0;align=right;verticalAlign=top;labelBackgroundColor=#ffffff;fontSize=10;strokeColor=#003366;shadow=1;fillColor=#D4E1F5;fontColor=#003366" connectable="0" vertex="1" parent="_v9oNohXTvP5xsh4NIjf-193">
          <mxGeometry x="1" relative="1" as="geometry">
            <mxPoint x="20" y="-27" as="offset" />
          </mxGeometry>
        </mxCell>
      </root>
    </mxGraphModel>
  </diagram>
</mxfile>
